HIERARCHY
ROOT Hips
{
	OFFSET -0.001795 -0.223333 0.028219
	CHANNELS 6 Xposition Yposition Zposition Zrotation Yrotation Xrotation 
	JOINT LeftUpLeg
	{
		OFFSET 0.069520 -0.091406 -0.006815
		CHANNELS 3 Zrotation Yrotation Xrotation
		JOINT LeftLeg
		{
			OFFSET 0.034277 -0.375199 -0.004496
			CHANNELS 3 Zrotation Yrotation Xrotation
			JOINT LeftFoot
			{
				OFFSET -0.013596 -0.397961 -0.043693
				CHANNELS 3 Zrotation Yrotation Xrotation
				JOINT LeftToe
				{
					OFFSET 0.026358 -0.055791 0.119288
					CHANNELS 3 Zrotation Yrotation Xrotation
					End Site
					{
						OFFSET 0.000000 0.000000 0.000000
					}
				}
			}
		}
	}
	JOINT RightUpLeg
	{
		OFFSET -0.067670 -0.090522 -0.004320
		CHANNELS 3 Zrotation Yrotation Xrotation
		JOINT RightLeg
		{
			OFFSET -0.038290 -0.382569 -0.008850
			CHANNELS 3 Zrotation Yrotation Xrotation
			JOINT RightFoot
			{
				OFFSET 0.015774 -0.398415 -0.042312
				CHANNELS 3 Zrotation Yrotation Xrotation
				JOINT RightToe
				{
					OFFSET -0.025372 -0.048144 0.123348
					CHANNELS 3 Zrotation Yrotation Xrotation
					End Site
					{
						OFFSET 0.000000 0.000000 0.000000
					}
				}
			}
		}
	}
	JOINT Spine
	{
		OFFSET -0.002533 0.108963 -0.026696
		CHANNELS 3 Zrotation Yrotation Xrotation
		JOINT Spine1
		{
			OFFSET 0.005487 0.135180 0.001092
			CHANNELS 3 Zrotation Yrotation Xrotation
			JOINT Spine2
			{
				OFFSET 0.001457 0.052922 0.025425
				CHANNELS 3 Zrotation Yrotation Xrotation
				JOINT Neck
				{
					OFFSET -0.002778 0.213870 -0.042857
					CHANNELS 3 Zrotation Yrotation Xrotation
					JOINT Head
					{
						OFFSET 0.005152 0.064970 0.051349
						CHANNELS 3 Zrotation Yrotation Xrotation
						End Site
						{
							OFFSET 0.000000 0.000000 0.000000
						}
					}
				}
				JOINT LeftShoulder
				{
					OFFSET 0.078845 0.121749 -0.034090
					CHANNELS 3 Zrotation Yrotation Xrotation
					JOINT LeftArm
					{
						OFFSET 0.090977 0.030469 -0.008868
						CHANNELS 3 Zrotation Yrotation Xrotation
						JOINT LeftForeArm
						{
							OFFSET 0.259612 -0.012772 -0.027456
							CHANNELS 3 Zrotation Yrotation Xrotation
							JOINT LeftHand
							{
								OFFSET 0.249234 0.008986 -0.001171
								CHANNELS 3 Zrotation Yrotation Xrotation
								End Site
								{
									OFFSET 0.000000 0.000000 0.000000
								}
							}
						}
					}
				}
				JOINT RightShoulder
				{
					OFFSET -0.081759 0.118833 -0.038615
					CHANNELS 3 Zrotation Yrotation Xrotation
					JOINT RightArm
					{
						OFFSET -0.096012 0.032551 -0.009143
						CHANNELS 3 Zrotation Yrotation Xrotation
						JOINT RightForeArm
						{
							OFFSET -0.253742 -0.013329 -0.021401
							CHANNELS 3 Zrotation Yrotation Xrotation
							JOINT RightHand
							{
								OFFSET -0.255298 0.007772 -0.005559
								CHANNELS 3 Zrotation Yrotation Xrotation
								End Site
								{
									OFFSET 0.000000 0.000000 0.000000
								}
							}
						}
					}
				}
			}
		}
	}
}
MOTION
Frames: 17
Frame Time: 0.050000
0.010271 0.925866 -0.002841 -1.203466 2.750831 -0.028796 9.022184 -0.451672 -17.826963 -8.809540 2.009536 30.900385 8.631183 18.396619 10.274617 0.000000 0.000000 0.000000 -6.733088 0.916794 -22.095027 4.877812 -0.991942 31.711467 -2.564807 -8.302102 6.542301 0.000000 0.000000 0.000000 6.429390 -2.423110 22.531922 -2.233050 1.197987 -25.207514 -2.245878 4.419772 30.140411 11.472480 -3.949000 -28.136259 0.000000 0.000000 0.000000 4.314338 -14.597930 4.634597 -6.266274 -32.700976 -1.869713 54.470830 -19.769969 -10.775531 0.000000 0.000000 0.000000 17.013365 -0.746600 0.165264 19.060712 31.045478 -0.085187 -48.329207 44.498351 -16.695325 0.000000 0.000000 0.000000 
0.010202 0.925032 -0.002463 -0.960560 2.917591 0.013824 8.979057 -0.471241 -18.050024 -9.007689 2.074113 31.137872 8.646968 18.434810 10.331335 0.000000 0.000000 0.000000 -6.891144 0.881973 -22.220888 4.816326 -0.990578 31.915439 -2.766195 -8.701482 6.472173 0.000000 0.000000 0.000000 6.698298 -2.443478 22.162809 -2.483426 1.260025 -24.992487 -2.222741 4.434628 30.329613 11.569063 -3.994772 -28.178028 0.000000 0.000000 0.000000 2.275618 -14.744703 4.781496 -9.114815 -32.493843 -1.441353 55.005574 -21.061921 -11.437010 0.000000 0.000000 0.000000 17.368176 -0.390852 0.395749 18.751191 31.095439 -0.152834 -48.074413 43.460351 -16.135337 0.000000 0.000000 0.000000 
0.010183 0.924294 -0.002347 -0.703436 3.113804 0.273262 8.751539 -0.524549 -18.381110 -9.155243 2.121474 31.504702 8.835859 18.742024 10.310097 0.000000 0.000000 0.000000 -7.254550 0.810827 -22.363715 5.024862 -1.098644 31.884437 -2.921275 -8.917411 6.025391 0.000000 0.000000 0.000000 6.968431 -2.467202 21.782350 -2.835324 1.345468 -24.813069 -2.180905 4.432905 30.604482 11.499818 -3.837548 -28.759529 0.000000 0.000000 0.000000 0.298476 -14.958778 4.944796 -10.917794 -32.372875 -1.182223 55.458832 -22.432785 -12.161216 0.000000 0.000000 0.000000 17.659070 -0.002892 0.650441 19.100557 30.998636 -0.154764 -47.546042 43.415710 -15.851862 0.000000 0.000000 0.000000 
0.010020 0.923098 -0.002306 -0.664506 3.152965 0.316787 8.818555 -0.526122 -18.702729 -9.261964 2.170859 31.859063 9.014140 19.001370 9.879566 0.000000 0.000000 0.000000 -7.115738 0.841338 -22.633407 4.959095 -1.083373 32.151788 -3.265839 -9.589525 5.733765 0.000000 0.000000 0.000000 7.223702 -2.489060 21.507006 -2.987580 1.383611 -24.635382 -2.025570 4.779490 30.948511 11.678874 -3.856838 -28.993465 0.000000 0.000000 0.000000 -1.609087 -15.071026 5.055298 -13.111400 -32.375639 -0.883300 56.879735 -24.722197 -13.706196 0.000000 0.000000 0.000000 18.215817 0.609094 1.095454 19.847130 30.587448 -0.154529 -46.556101 44.481225 -15.832168 0.000000 0.000000 0.000000 
0.009838 0.921427 -0.002239 -0.538609 3.294745 0.493889 8.759303 -0.554687 -19.091856 -9.384954 2.221493 32.410952 9.090979 19.118823 9.598098 0.000000 0.000000 0.000000 -7.365891 0.793321 -22.862672 5.306033 -1.256802 32.518409 -3.483190 -9.994491 5.464143 0.000000 0.000000 0.000000 7.537178 -2.557343 21.453237 -3.321092 1.466842 -24.162043 -1.850820 4.998724 30.719043 11.646943 -3.735266 -29.233520 0.000000 0.000000 0.000000 -3.823219 -15.179115 5.156974 -14.954354 -32.075560 -0.603789 58.647587 -28.266296 -16.131292 0.000000 0.000000 0.000000 19.048524 1.170586 1.508605 21.419201 29.911432 -0.067919 -46.669782 47.431008 -17.022053 0.000000 0.000000 0.000000 
0.009773 0.918980 -0.002236 -0.470520 3.269395 0.530163 8.753534 -0.562290 -19.370050 -9.579152 2.324000 32.939739 9.231639 19.306952 8.889922 0.000000 0.000000 0.000000 -7.361775 0.805946 -23.318708 5.450811 -1.340956 33.363921 -3.701704 -10.418996 5.209568 0.000000 0.000000 0.000000 7.825563 -2.623617 21.513811 -3.646497 1.546285 -24.017379 -1.693318 5.241546 30.993798 11.600296 -3.710134 -29.089932 0.000000 0.000000 0.000000 -5.855042 -15.213157 5.217014 -17.232167 -31.208629 -0.335531 61.063352 -32.034140 -19.077716 0.000000 0.000000 0.000000 20.019594 1.426089 1.768404 23.056392 29.430357 0.001241 -45.400788 51.009609 -17.839548 0.000000 0.000000 0.000000 
0.010105 0.915986 -0.002474 -0.406501 3.377143 0.640441 8.605305 -0.610609 -20.058257 -9.575135 2.345849 33.974378 9.271107 19.356842 8.379730 0.000000 0.000000 0.000000 -7.571849 0.774105 -24.029398 5.577770 -1.441862 34.314604 -3.709719 -10.339798 4.742539 0.000000 0.000000 0.000000 8.258050 -2.736630 21.629369 -4.233903 1.687319 -24.021391 -1.394533 5.221498 31.150662 11.355428 -3.598381 -28.902983 0.000000 0.000000 0.000000 -8.292927 -15.374183 5.343304 -19.458584 -30.443550 -0.085147 63.885872 -36.053503 -22.521723 0.000000 0.000000 0.000000 20.400293 1.747032 1.987360 25.626971 28.484020 0.122565 -43.895606 54.740209 -18.461036 0.000000 0.000000 0.000000 
0.010908 0.912769 -0.003139 -0.271165 3.508162 0.736492 8.449631 -0.665414 -20.786050 -9.686682 2.409447 34.954264 9.490494 19.701118 7.905646 0.000000 0.000000 0.000000 -7.713961 0.748796 -24.699660 5.573546 -1.507364 35.674071 -3.870576 -10.602407 4.302955 0.000000 0.000000 0.000000 8.451559 -2.778070 21.579324 -4.499538 1.766786 -23.420222 -1.422838 5.367809 30.888223 11.340575 -3.528871 -28.972584 0.000000 0.000000 0.000000 -10.322420 -15.592661 5.442344 -22.093131 -29.384515 0.167925 67.047658 -40.262335 -26.606087 0.000000 0.000000 0.000000 21.137576 1.731744 2.069315 27.879932 27.578166 0.180455 -41.997750 58.218036 -18.634386 0.000000 0.000000 0.000000 
0.011930 0.909102 -0.003992 -0.161300 3.784983 0.737391 8.392592 -0.716575 -21.614442 -9.708192 2.421468 36.284074 9.391636 19.542077 7.596752 0.000000 0.000000 0.000000 -8.042283 0.668768 -25.400372 5.739476 -1.674940 36.923228 -3.788782 -10.295541 3.739133 0.000000 0.000000 0.000000 8.678222 -2.876173 21.852368 -4.973425 1.893618 -23.189177 -1.501864 5.025529 30.816760 11.197716 -3.396793 -29.424005 0.000000 0.000000 0.000000 -12.466225 -15.853517 5.633178 -24.649194 -28.650294 0.392356 69.502709 -44.212626 -30.339888 0.000000 0.000000 0.000000 21.931922 1.915977 2.166770 29.795079 26.621138 0.169011 -39.332277 60.576807 -17.925033 0.000000 0.000000 0.000000 
0.012614 0.905317 -0.004608 0.002693 3.875196 0.549279 8.258937 -0.760423 -22.166479 -10.270259 2.694605 37.350975 9.462117 19.612112 6.507081 0.000000 0.000000 0.000000 -8.499852 0.565076 -26.109719 5.952411 -1.857999 38.585764 -3.790623 -10.117107 2.864802 0.000000 0.000000 0.000000 8.711280 -2.948744 22.344275 -5.413749 2.006278 -23.171004 -1.815166 4.890030 30.808839 11.280325 -3.513974 -29.164731 0.000000 0.000000 0.000000 -14.223687 -16.470010 5.979264 -27.288897 -27.844212 0.570252 69.026549 -47.476411 -32.134755 0.000000 0.000000 0.000000 22.782857 2.232984 2.361598 31.366568 25.360652 0.029635 -37.097422 62.715148 -17.329338 0.000000 0.000000 0.000000 
0.012528 0.900775 -0.004442 0.013273 3.976755 0.307578 8.372170 -0.763445 -22.739809 -10.588024 2.875725 38.737602 9.567097 19.747607 5.496422 0.000000 0.000000 0.000000 -8.482186 0.559102 -26.497132 6.065089 -1.993113 39.957751 -3.871108 -10.124769 2.038991 0.000000 0.000000 0.000000 8.496256 -2.931346 22.575548 -5.576225 2.070608 -22.671035 -2.379789 4.325992 30.543932 11.128992 -3.602135 -28.686229 0.000000 0.000000 0.000000 -16.259046 -17.061816 6.443745 -29.152981 -27.357095 0.703445 63.796889 -49.569335 -30.188040 0.000000 0.000000 0.000000 23.910634 2.555024 2.444105 32.575419 25.048354 0.086209 -33.862538 63.917385 -15.807429 0.000000 0.000000 0.000000 
0.011655 0.896659 -0.003369 -0.154453 3.643319 0.061811 8.934120 -0.640351 -22.747516 -11.084552 3.205081 39.509415 9.566923 19.693054 4.460508 0.000000 0.000000 0.000000 -8.259241 0.635621 -26.677249 6.251353 -2.076026 41.046053 -3.750581 -9.675449 1.246707 0.000000 0.000000 0.000000 8.201952 -2.885875 22.877869 -5.706212 2.092759 -22.807125 -2.803688 4.187165 30.647982 11.576302 -4.068680 -27.945066 0.000000 0.000000 0.000000 -17.477598 -18.014417 7.060848 -30.702907 -26.631570 0.713491 54.365730 -49.034145 -24.411952 0.000000 0.000000 0.000000 24.740433 2.697642 2.459479 34.103791 24.621647 0.118635 -32.200342 65.949733 -15.353400 0.000000 0.000000 0.000000 
0.010400 0.893838 -0.001494 -0.445153 3.422559 -0.244823 9.505551 -0.518933 -22.712531 -11.650671 3.554248 40.283882 9.935888 20.306917 3.836765 0.000000 0.000000 0.000000 -7.898675 0.732931 -26.748528 6.213147 -2.044625 41.696356 -3.709306 -9.509890 0.946705 0.000000 0.000000 0.000000 7.801408 -2.777195 22.844165 -5.846527 2.138218 -22.505943 -3.159852 3.620968 30.684252 11.658880 -4.255284 -27.897354 0.000000 0.000000 0.000000 -18.784836 -18.937839 7.803490 -31.628052 -25.979053 0.643218 44.906588 -45.608071 -17.785984 0.000000 0.000000 0.000000 25.239078 2.772309 2.295211 35.426303 24.878410 0.347551 -33.405406 68.527450 -17.009339 0.000000 0.000000 0.000000 
0.009452 0.892757 0.000591 -0.723671 2.700819 -0.646080 10.120338 -0.347894 -22.260526 -12.049075 3.920704 40.794438 10.100387 20.575930 3.910285 0.000000 0.000000 0.000000 -7.254737 0.927030 -26.536872 5.968290 -1.795676 42.213055 -3.633705 -9.153885 0.200196 0.000000 0.000000 0.000000 7.453304 -2.691399 23.130573 -5.682727 2.087362 -22.584199 -3.754394 3.650639 30.735648 12.137309 -4.679867 -27.535716 0.000000 0.000000 0.000000 -18.904816 -19.491542 8.203286 -32.958399 -24.982902 0.507252 36.630400 -40.543172 -12.210231 0.000000 0.000000 0.000000 25.689015 2.615390 2.062361 35.953761 25.136362 0.507877 -39.115442 72.556757 -22.670330 0.000000 0.000000 0.000000 
0.008969 0.893456 0.002624 -1.121967 2.124221 -0.772959 10.596145 -0.218549 -21.742776 -12.351183 4.163087 40.489886 10.241170 20.807139 3.710219 0.000000 0.000000 0.000000 -6.686106 1.094340 -26.447574 5.935365 -1.669801 42.268856 -3.651526 -9.121348 -0.115923 0.000000 0.000000 0.000000 7.275626 -2.597407 22.911967 -5.585272 2.063270 -22.237055 -4.043946 3.419775 30.459676 12.201190 -4.835585 -27.342437 0.000000 0.000000 0.000000 -18.718820 -19.874748 8.526743 -34.308577 -23.245343 0.158120 31.682617 -37.004405 -9.226252 0.000000 0.000000 0.000000 25.493573 2.655661 1.876591 36.138040 25.020195 0.580594 -50.156994 76.820787 -33.701984 0.000000 0.000000 0.000000 
0.008937 0.895357 0.004239 -1.367542 1.607415 -0.975587 10.718522 -0.155445 -21.029550 -12.366260 4.247205 40.142191 10.462690 21.179227 4.240751 0.000000 0.000000 0.000000 -6.324066 1.202253 -26.212625 5.842303 -1.514518 42.155751 -3.526603 -8.807074 -0.152746 0.000000 0.000000 0.000000 7.165381 -2.539660 22.862455 -5.948810 2.140120 -22.434428 -3.928400 3.586321 30.728804 12.284735 -5.033664 -26.789006 0.000000 0.000000 0.000000 -18.552577 -20.039401 8.635410 -35.010639 -22.462583 -0.036408 29.160208 -35.537826 -7.971577 0.000000 0.000000 0.000000 25.579114 2.625628 1.820819 35.502441 25.058328 0.520621 -61.663893 79.571792 -45.549597 0.000000 0.000000 0.000000 
0.009131 0.897132 0.005448 -1.565451 1.432336 -1.033599 10.841634 -0.121435 -20.622266 -12.478076 4.305790 39.797251 10.517695 21.269891 4.352074 0.000000 0.000000 0.000000 -5.964458 1.271702 -25.720918 5.815484 -1.452024 41.521071 -3.544283 -8.889838 -0.019125 0.000000 0.000000 0.000000 7.189609 -2.522019 22.741517 -6.001357 2.153101 -22.434083 -3.745171 3.891864 30.862847 12.353796 -5.016559 -26.893105 0.000000 0.000000 0.000000 -18.063708 -19.991683 8.513415 -35.067990 -21.703528 -0.240521 29.802538 -37.169893 -8.623279 0.000000 0.000000 0.000000 25.099926 2.678589 1.918956 34.181666 25.067497 0.386135 -67.147289 81.264669 -51.947595 0.000000 0.000000 0.000000 
